<svg xmlns="http://www.w3.org/2000/svg" width="50" height="61.411" viewBox="0 0 50 61.411">
  <path id="Apple_logo_black" d="M48.4,20.937a13.909,13.909,0,0,0-6.645,11.7c0,9.114,8,12.339,8.242,12.419a32.208,32.208,0,0,1-4.219,8.715c-2.629,3.783-5.374,7.561-9.55,7.561s-5.251-2.426-10.072-2.426c-4.7,0-6.369,2.506-10.189,2.506s-6.486-3.5-9.55-7.8A37.618,37.618,0,0,1,0,33.276C0,21.336,7.763,15,15.4,15c4.06,0,7.444,2.666,9.993,2.666,2.426,0,6.209-2.825,10.828-2.825A14.48,14.48,0,0,1,48.4,20.937ZM34.031,9.79a13.713,13.713,0,0,0,3.261-8.555A5.9,5.9,0,0,0,37.176,0a13.737,13.737,0,0,0-9.035,4.655,13.352,13.352,0,0,0-3.384,8.322,5.639,5.639,0,0,0,.117,1.112,4.806,4.806,0,0,0,.835.08C28.5,14.169,32,12.3,34.031,9.79Z" fill="#fff"/>
</svg>
