<svg xmlns="http://www.w3.org/2000/svg" xmlns:xlink="http://www.w3.org/1999/xlink" width="50" height="55.689" viewBox="0 0 50 55.689">
  <defs>
    <linearGradient id="linear-gradient" x1="0.916" y1="0.05" x2="-0.383" y2="0.719" gradientUnits="objectBoundingBox">
      <stop offset="0" stop-color="#008eff"/>
      <stop offset="0.01" stop-color="#008fff"/>
      <stop offset="0.26" stop-color="#00acff"/>
      <stop offset="0.51" stop-color="#00c0ff"/>
      <stop offset="0.76" stop-color="#00cdff"/>
      <stop offset="1" stop-color="#00d1ff"/>
    </linearGradient>
    <linearGradient id="linear-gradient-2" x1="0.913" y1="0.5" x2="-1.466" y2="0.5" gradientUnits="objectBoundingBox">
      <stop offset="0" stop-color="#ffd800"/>
      <stop offset="1" stop-color="#ff8a00"/>
    </linearGradient>
    <linearGradient id="linear-gradient-3" x1="0.863" y1="0.177" x2="-0.501" y2="1.952" gradientUnits="objectBoundingBox">
      <stop offset="0" stop-color="#ff3a44"/>
      <stop offset="1" stop-color="#b11162"/>
    </linearGradient>
    <linearGradient id="linear-gradient-4" x1="-0.188" y1="-0.541" x2="0.421" y2="0.249" gradientUnits="objectBoundingBox">
      <stop offset="0" stop-color="#328e71"/>
      <stop offset="0.07" stop-color="#2d9571"/>
      <stop offset="0.48" stop-color="#15bd74"/>
      <stop offset="0.8" stop-color="#06d575"/>
      <stop offset="1" stop-color="#00de76"/>
    </linearGradient>
  </defs>
  <g id="g58" transform="translate(0.004 0)">
    <g id="g56" transform="translate(-0.004 0)">
      <path id="path40" d="M1,.554A4.344,4.344,0,0,0,0,3.589V51.469A4.381,4.381,0,0,0,1,54.5l.164.164,26.812-26.83V27.2L1.167.39Z" transform="translate(0.004 0.319)" fill="url(#linear-gradient)"/>
      <path id="path42" d="M24.333,28.735,15.39,19.791v-.636l8.943-8.925.2.109,10.6,6.017c3.036,1.709,3.036,4.526,0,6.253l-10.6,6.017Z" transform="translate(12.593 8.365)" fill="url(#linear-gradient-2)"/>
      <path id="path44" d="M36.669,24.439,27.58,15.35.55,42.271A3.635,3.635,0,0,0,5,42.4L36.614,24.439" transform="translate(0.457 12.552)" fill="url(#linear-gradient-3)"/>
      <path id="path46" d="M36.669,18.7,5,.727A3.508,3.508,0,0,0,.55.872L27.525,27.848Z" transform="translate(0.457 0)" fill="url(#linear-gradient-4)"/>
      <path id="path48" d="M36.493,20.24,5.028,38.09a3.635,3.635,0,0,1-4.344,0l-.164.164.164.164a3.635,3.635,0,0,0,4.344,0L36.639,20.458Z" transform="translate(0.433 16.551)" opacity="0.1"/>
      <path id="path50" d="M1,31.374A4.417,4.417,0,0,1,0,28.32v.309a4.381,4.381,0,0,0,1,3.036l.164-.164Z" transform="translate(0.004 23.158)" opacity="0.07"/>
      <path id="path52" d="M31.107,18.152,20.31,24.3l.2.2,10.6-6.089A3.835,3.835,0,0,0,33.38,15.28a4.017,4.017,0,0,1-2.272,2.872Z" transform="translate(16.616 12.495)" opacity="0.07"/>
      <path id="path54" d="M5.453,1.053,47.716,25.029a4,4,0,0,1,2.272,2.818,3.8,3.8,0,0,0-2.272-3.127L5.453.726C2.472-.983,0,.435,0,3.907v.309C0,.762,2.472-.674,5.453,1.053Z" transform="translate(0.007 0.001)" fill="#fff" opacity="0.3"/>
    </g>
  </g>
</svg>
