<svg id="drive_file_rename_outline_black_24dp" xmlns="http://www.w3.org/2000/svg" width="40" height="40" viewBox="0 0 40 40">
  <g id="Groupe_931" data-name="Groupe 931">
    <rect id="Rectangle_3" data-name="Rectangle 3" width="40" height="40" fill="none"/>
  </g>
  <g id="Groupe_933" data-name="Groupe 933" transform="translate(5 6.667)">
    <g id="Groupe_932" data-name="Groupe 932">
      <path id="Tracé_976" data-name="Tracé 976" d="M17.667,16,11,22.667H27.667V16Z" transform="translate(2.333 4)" fill="#fff"/>
      <path id="Tracé_977" data-name="Tracé 977" d="M18.1,7.19,3,22.29v6.25H9.25l15.1-15.1ZM7.867,25.207H6.333V23.673L18.1,11.907l1.533,1.533Z" transform="translate(-3 -1.873)" fill="#fff"/>
      <path id="Tracé_978" data-name="Tracé 978" d="M22.43,10.733a1.66,1.66,0,0,0,0-2.35l-3.9-3.9A1.637,1.637,0,0,0,17.347,4a1.668,1.668,0,0,0-1.167.483l-3.05,3.05,6.25,6.25Z" transform="translate(3.753 -4)" fill="#fff"/>
    </g>
  </g>
</svg>
