<svg id="logo" xmlns="http://www.w3.org/2000/svg" width="254" height="125" viewBox="0 0 254 125">
  <g id="Groupe_909" data-name="Groupe 909" transform="translate(1.725 12.714)">
    <path id="Tracé_962" data-name="Tracé 962" d="M10.756,55.44c.207-1.79.313-3.6.637-5.367A25.173,25.173,0,0,1,32.518,29.417a33.458,33.458,0,0,1,16.144,1.142c.35.118.693.26,1.035.4,2.346.97,3.117,2.275,2.777,4.8A39.838,39.838,0,0,1,49.8,45.483c-.947,2.325-1.763,2.631-4.047,1.621a21.453,21.453,0,0,0-6.8-1.766A9.579,9.579,0,0,0,29.018,51.6c-2.041,5,0,11.119,4.529,13.574a10.511,10.511,0,0,0,7.424.71c1.649-.346,3.255-.908,4.868-1.412,1.852-.579,2.549-.316,3.277,1.509a49.2,49.2,0,0,1,2.863,9.84c.4,2.28-.3,3.577-2.439,4.509a27.037,27.037,0,0,1-9.061,2.145c-6.866.46-13.284-.862-18.947-4.955A25.175,25.175,0,0,1,11.244,60.739c-.246-1.433-.33-2.893-.488-4.341Z" transform="translate(-10.756 -28.928)" fill="#0b5a6a"/>
    <path id="Tracé_963" data-name="Tracé 963" d="M116.57,29.237c1.613,0,3.227-.053,4.837.013a5.341,5.341,0,0,1,4.832,2.987c1.292,2.579,2.5,5.209,3.574,7.888Q136.075,55.784,142.2,71.5A23.953,23.953,0,0,1,143.5,76.4c.534,3.357-.9,5.377-4.214,6.019a20.186,20.186,0,0,1-7.261.007,6.564,6.564,0,0,1-4.978-3.687,31.183,31.183,0,0,1-1.678-4.105,3.149,3.149,0,0,0-3.17-2.4q-5.827-.038-11.655.088a2.754,2.754,0,0,0-2.726,2.239,28.19,28.19,0,0,1-1.4,3.632,6.9,6.9,0,0,1-6.226,4.361,35.064,35.064,0,0,1-5.854-.062c-3.6-.406-5.3-2.751-4.645-6.367a27.865,27.865,0,0,1,1.49-5.266q7-17.678,14.123-35.306a28.775,28.775,0,0,1,1.749-3.477,5.33,5.33,0,0,1,4.6-2.816c1.635-.076,3.277-.015,4.916-.015ZM116.557,61.2c.814-.061,1.606-.088,2.39-.185,1.612-.2,2.07-.791,1.651-2.348-.741-2.758-1.554-5.5-2.378-8.231a4.911,4.911,0,0,0-.771-1.464c-.536-.723-1.147-.718-1.678.021a5.723,5.723,0,0,0-.788,1.545c-.661,2.04-1.27,4.1-1.9,6.147-.2.658-.43,1.31-.591,1.979-.349,1.442.112,2.142,1.558,2.335C114.887,61.115,115.733,61.141,116.557,61.2Z" transform="translate(-47.792 -29.063)" fill="#0b5a6a"/>
    <path id="Tracé_964" data-name="Tracé 964" d="M212.179,82.553a49.387,49.387,0,0,1-10.471-1.12,28.029,28.029,0,0,1-2.86-.934c-2.574-.947-3.388-2.188-3.06-4.923a25.1,25.1,0,0,1,1.994-7.346,8.377,8.377,0,0,1,.609-1.115,3.156,3.156,0,0,1,4.285-1.443c.718.265,1.418.582,2.12.889a12.867,12.867,0,0,0,6.589,1.009,3.646,3.646,0,0,0,3.369-2.479,3.516,3.516,0,0,0-1.676-3.9,23.655,23.655,0,0,0-4.438-2.066,16.761,16.761,0,0,1-7.491-4.587c-5.492-6.26-4.422-15.5,2.391-20.622A24.34,24.34,0,0,1,214.55,29.5a43.745,43.745,0,0,1,17.1.6,22.072,22.072,0,0,1,3.589,1.244,3.461,3.461,0,0,1,2.364,3.9,23.172,23.172,0,0,1-2.142,8.195,6.592,6.592,0,0,1-.61,1.023,2.794,2.794,0,0,1-3.655,1.184c-1.3-.454-2.553-1.025-3.858-1.45a12.718,12.718,0,0,0-7.194-.234,4.948,4.948,0,0,0-1.17.478,2.3,2.3,0,0,0-.72,3.74A7.221,7.221,0,0,0,221.64,50.3c1.664.6,3.4,1.01,5.041,1.662,5.255,2.089,8.743,5.787,9.53,11.534.933,6.813-2.15,12.6-8.192,15.9a28.637,28.637,0,0,1-13.062,3.149C214.033,82.579,213.106,82.553,212.179,82.553Z" transform="translate(-97.694 -28.927)" fill="#0b5a6a"/>
    <path id="Tracé_965" data-name="Tracé 965" d="M281.323,55.716c0-4.625-.08-9.251.04-13.873a25.081,25.081,0,0,1,.856-5.492c1.067-4.179,3.91-6.511,8.427-7.019a48.7,48.7,0,0,1,5.38-.321c4.127,0,8.258-.01,12.379.174a8.986,8.986,0,0,1,6.276,2.7,8.524,8.524,0,0,1,1.53,8.571,6.025,6.025,0,0,1-4.866,3.523,17.084,17.084,0,0,1-3.08.206c-1.931-.016-3.861-.13-5.792-.164a9.687,9.687,0,0,0-2.049.155,2.393,2.393,0,0,0-2.073,2.451,2.445,2.445,0,0,0,1.85,2.785,9.786,9.786,0,0,0,2.5.3c1.931-.006,3.862-.159,5.793-.147,3.717.022,5.278,1.4,5.63,5.113A15.065,15.065,0,0,1,313.9,58.7a3.615,3.615,0,0,1-3.773,3.3c-1.794.078-3.6-.042-5.395-.055a31.346,31.346,0,0,0-3.878.047,2.567,2.567,0,0,0-2.5,2.982c.083,1.548,1.02,2.426,2.831,2.462,2.249.045,4.5-.046,6.748-.022a19.006,19.006,0,0,1,3.473.247c3.88.768,5.78,3.512,5.29,7.485-.552,4.479-3.054,7.034-7.816,7.226-5.73.233-11.477.087-17.216.021a12.821,12.821,0,0,1-3.34-.641c-3.4-.984-5.31-3.389-6.189-6.741A32.323,32.323,0,0,1,281.2,67.2c-.05-3.828-.013-7.657-.013-11.486Z" transform="translate(-137.86 -28.965)" fill="#0b5a6a"/>
  </g>
  <g id="Groupe_910" data-name="Groupe 910" transform="translate(0 77.062)">
    <path id="Tracé_966" data-name="Tracé 966" d="M75.047,174.86a1.613,1.613,0,0,1-1.277-2.02,10.334,10.334,0,0,1,.842-3.09,3.049,3.049,0,0,1,.223-.4,1.312,1.312,0,0,1,1.793-.6c.337.126.664.277,1,.416a5.272,5.272,0,0,0,2.565.363,1.587,1.587,0,0,0,.194-.027,1.384,1.384,0,0,0,1.206-1.016,1.37,1.37,0,0,0-.623-1.543,9.57,9.57,0,0,0-1.695-.832A9.191,9.191,0,0,1,76.7,164.84a5.755,5.755,0,0,1,.251-9.184,10.132,10.132,0,0,1,4.571-1.832,18.031,18.031,0,0,1,7.02.248,9.256,9.256,0,0,1,1.481.509,1.439,1.439,0,0,1,.988,1.632,9.644,9.644,0,0,1-.861,3.318,2.821,2.821,0,0,1-.171.318,1.229,1.229,0,0,1-1.688.609,20.93,20.93,0,0,0-2.326-.749,4,4,0,0,0-2.475.2,1,1,0,0,0-.29,1.8,4.632,4.632,0,0,0,1.831.911,11.251,11.251,0,0,1,2.64,1.033,6.12,6.12,0,0,1,.934,9.624c-2.432,2.15-4.862,2.517-8.086,2.515A13.2,13.2,0,0,1,75.047,174.86Z" transform="translate(-38.636 -153.593)" fill="#084958"/>
    <path id="Tracé_967" data-name="Tracé 967" d="M43.288,158.919a10.35,10.35,0,0,1,.353-2.264,3.677,3.677,0,0,1,3.475-2.895,19.649,19.649,0,0,1,2.186-.132c1.713,0,3.428-.006,5.138.072a3.7,3.7,0,0,1,2.635,1.158,3.522,3.522,0,0,1,.571,3.515,2.485,2.485,0,0,1-1.992,1.424,6.994,6.994,0,0,1-1.27.085c-.8-.006-1.592-.054-2.389-.067a4.016,4.016,0,0,0-.845.064.987.987,0,0,0-.856,1.01,1.008,1.008,0,0,0,.762,1.148,4.014,4.014,0,0,0,1.032.123c.8,0,1.593-.065,2.389-.061,1.533.009,2.177.578,2.323,2.107a6.2,6.2,0,0,1-.094,1.663,1.5,1.5,0,0,1-1.588,1.364c-.729.03-1.462-.02-2.193-.025a13.151,13.151,0,0,0-1.632.025,1.05,1.05,0,0,0-1,1.223,1.012,1.012,0,0,0,1.134,1.013c.938.021,1.877-.017,2.816-.006a7.848,7.848,0,0,1,1.433.1,2.55,2.55,0,0,1,2.182,3.086,3.058,3.058,0,0,1-3.223,2.98c-2.363.1-4.733.036-7.1.009a5.3,5.3,0,0,1-1.378-.264,3.593,3.593,0,0,1-2.552-2.779,13.327,13.327,0,0,1-.384-3.222c-.021-1.567-.005-3.134-.005-4.7C43.235,164.672,43.238,160.835,43.288,158.919Z" transform="translate(-24.285 -153.609)" fill="#084958"/>
    <path id="Tracé_968" data-name="Tracé 968" d="M12.739,166.61q0-2.664,0-5.328c0-1.171-.222-1.38-1.393-1.432a15.756,15.756,0,0,1-1.92-.17,2.1,2.1,0,0,1-1.836-1.908,5.98,5.98,0,0,1,.063-2.382,1.966,1.966,0,0,1,1.583-1.567,7.851,7.851,0,0,1,1.588-.189q5.356-.024,10.711,0a8.894,8.894,0,0,1,1.558.167,2.184,2.184,0,0,1,1.9,1.977,6.108,6.108,0,0,1-.067,2.319,1.994,1.994,0,0,1-1.823,1.63c-.582.079-1.174.088-1.762.124-.229.014-.459,0-.687.027a.786.786,0,0,0-.795.8,7.136,7.136,0,0,0-.024.723c0,3.245.011,6.49-.008,9.735a18.621,18.621,0,0,1-.178,2.519A2.087,2.087,0,0,1,17.7,175.6a12.423,12.423,0,0,1-2.768.008,2.219,2.219,0,0,1-2.018-2.239,28.93,28.93,0,0,1-.169-2.917C12.719,169.176,12.739,167.892,12.739,166.61Z" transform="translate(-7.5 -153.607)" fill="#084958"/>
  </g>
  <g id="Groupe_911" data-name="Groupe 911" transform="translate(55.313 76.416)">
    <path id="Tracé_969" data-name="Tracé 969" d="M434.574,202.1a44.75,44.75,0,0,1-9.48-1.014,25.356,25.356,0,0,1-2.589-.846c-2.327-.857-3.065-1.983-2.766-4.458a22.629,22.629,0,0,1,1.808-6.647,7.518,7.518,0,0,1,.633-1.128,2.775,2.775,0,0,1,3.661-1.222c.7.245,1.378.548,2.058.844a11.673,11.673,0,0,0,5.966.911,3.3,3.3,0,0,0,3.047-2.246,3.136,3.136,0,0,0-1.524-3.527,31.63,31.63,0,0,0-4.829-2.162,13.45,13.45,0,0,1-7.134-5.419,12.576,12.576,0,0,1,3.335-17.109,22.054,22.054,0,0,1,9.968-4,39.625,39.625,0,0,1,15.479.545,19.916,19.916,0,0,1,3.249,1.126,3.134,3.134,0,0,1,2.137,3.531,21.016,21.016,0,0,1-1.94,7.416,5.873,5.873,0,0,1-.51.868,2.55,2.55,0,0,1-3.354,1.125c-1.173-.411-2.311-.928-3.493-1.312a11.5,11.5,0,0,0-6.513-.209,4.483,4.483,0,0,0-1.121.469,2.066,2.066,0,0,0-.63,3.294,6.355,6.355,0,0,0,3.047,1.955c1.528.555,3.123.93,4.631,1.529,4.758,1.892,7.915,5.239,8.625,10.441a13.68,13.68,0,0,1-7.421,14.387A25.939,25.939,0,0,1,437.09,202.1C436.252,202.124,435.413,202.1,434.574,202.1Z" transform="translate(-259.584 -153.567)" fill="#ffab20"/>
    <path id="Tracé_970" data-name="Tracé 970" d="M117.612,178.543c0-4.884-.034-9.768.019-14.652a32.132,32.132,0,0,1,.41-5.237c.613-3.467,2.266-4.939,5.8-4.974,6.132-.06,12.266-.007,18.4.126a16.732,16.732,0,0,1,6.971,1.822,13.349,13.349,0,0,1,7.364,8.919,18.325,18.325,0,0,1-.065,9.836c-1.459,5.146-5.07,8.03-10.039,9.431a31.46,31.46,0,0,1-8.179.975c-.743.01-1.487,0-2.227.046-1.8.116-2.649.838-2.795,2.641-.139,1.722-.041,3.461-.125,5.189a46.324,46.324,0,0,1-.425,5.162,4.651,4.651,0,0,1-4.207,4.11,17.965,17.965,0,0,1-6.431-.076,4.448,4.448,0,0,1-3.708-3.405,24.166,24.166,0,0,1-.706-5.118c-.092-4.93-.032-9.864-.032-14.8Zm15.229-9.43c.064.575.091,1.155.2,1.72a3.768,3.768,0,0,0,2.953,3.327,5.311,5.311,0,0,0,5.9-4,4.945,4.945,0,0,0-3.888-5.831,3.769,3.769,0,0,0-4.961,3.138C132.936,168,132.908,168.559,132.841,169.113Z" transform="translate(-117.601 -153.608)" fill="#ffab20"/>
    <path id="Tracé_971" data-name="Tracé 971" d="M373.511,202c-2.514,0-5.032.07-7.542-.03a15.155,15.155,0,0,1-3.587-.66c-3-.875-4.651-3.051-5.439-5.987a27.727,27.727,0,0,1-.853-7.071c-.036-6.906-.077-13.812.023-20.717a34.243,34.243,0,0,1,.8-6.782c.917-4.179,3.423-6.358,7.673-6.811,2.232-.238,4.491-.292,6.739-.306,3.113-.021,6.231-.019,9.338.15a8.255,8.255,0,0,1,5.847,2.565,7.714,7.714,0,0,1,1.23,7.72,5.085,5.085,0,0,1-4.384,3.081c-2.5.205-5.018.071-7.529.1a14.3,14.3,0,0,0-2.356.117,2.139,2.139,0,0,0-1.86,2.228,2.212,2.212,0,0,0,1.695,2.506,8.954,8.954,0,0,0,2.267.262c1.748-.006,3.5-.143,5.245-.132,3.329.019,4.745,1.255,5.067,4.576a14.33,14.33,0,0,1-.228,3.864,3.229,3.229,0,0,1-3.332,2.82c-1.648.074-3.3-.039-4.956-.045a29.046,29.046,0,0,0-3.653.071,2.3,2.3,0,0,0-2.1,2.691,2.184,2.184,0,0,0,2.367,2.192c2.106.058,4.217-.045,6.324,0a17.77,17.77,0,0,1,3.63.349c3.145.734,4.711,3.255,4.28,6.665-.515,4.072-2.818,6.267-7.165,6.547-2.5.162-5.026.029-7.54.029Z" transform="translate(-229.678 -153.595)" fill="#ffab20"/>
    <path id="Tracé_972" data-name="Tracé 972" d="M300.083,153.64c3.979,0,7.958-.031,11.936.019a18.357,18.357,0,0,1,3.486.412,4.686,4.686,0,0,1,3.914,4.076,13.072,13.072,0,0,1-.086,5.231,4.35,4.35,0,0,1-4.015,3.651c-1.206.168-2.433.191-3.652.266-.573.036-1.153,0-1.723.064a1.721,1.721,0,0,0-1.747,1.751,15.221,15.221,0,0,0-.053,1.587c0,7.268.021,14.536-.02,21.8a36.122,36.122,0,0,1-.387,5.1,4.6,4.6,0,0,1-4.269,4.284,27.368,27.368,0,0,1-6.076.02c-2.649-.325-4.07-1.979-4.43-4.912a56.54,56.54,0,0,1-.371-6.475c-.046-6.57-.016-13.14-.017-19.71,0-.385-.005-.77-.028-1.154-.1-1.668-.694-2.238-2.382-2.325-1.411-.073-2.831-.089-4.228-.275-3.059-.408-4.629-2.082-4.766-5.165a20.351,20.351,0,0,1,.267-4.367,4.109,4.109,0,0,1,3.442-3.447,19.006,19.006,0,0,1,3.629-.419c3.858-.052,7.717-.019,11.576-.019Z" transform="translate(-194.472 -153.592)" fill="#ffab20"/>
    <path id="Tracé_973" data-name="Tracé 973" d="M241.648,173.585c-1.292-7.983-5.435-13.98-12.762-17.536a25.761,25.761,0,0,0-16.479-1.936,22.564,22.564,0,0,0-13.149,7.42c-4.086,4.689-5.781,10.259-5.854,17.161.078.757.136,2.28.4,3.764a22.7,22.7,0,0,0,11.25,16.354,24.888,24.888,0,0,0,17.424,2.853,22.671,22.671,0,0,0,16.336-11.351A24.679,24.679,0,0,0,241.648,173.585Zm-13.408,4.668c-1.472,4.748-7.545,7.4-12.672,9.18a1.066,1.066,0,0,1-1.2-.368l-.01-.014c-3.21-4.4-6.706-10.059-5.234-14.807a5.913,5.913,0,0,1,7.332-3.817,6.036,6.036,0,0,1,3.341,3.226,5.988,5.988,0,0,1,4.571-.741,5.755,5.755,0,0,1,3.542,3.138A5.986,5.986,0,0,1,228.24,178.253Z" transform="translate(-153.23 -153.566)" fill="#ffab20"/>
  </g>
  <g id="Groupe_912" data-name="Groupe 912" transform="translate(188.788)">
    <path id="Tracé_974" data-name="Tracé 974" d="M410.887,69.365q.4-.387.768-.793c.084-.094.171-.187.248-.279h0a19.7,19.7,0,0,0,3.221-20.982l-2.9-6.539-.039.018-2.411-5.471,0,.009-1.534-3.472,0-.014-5.457-12.381h0l-.124-.28A2.771,2.771,0,0,0,398.464,18a2.981,2.981,0,0,0-.79,3.65l4.442,10.031,1.136,2.564a1.394,1.394,0,0,1,.12.547,1.41,1.41,0,0,1-.383.988,1.384,1.384,0,0,1-2.277-.394l-.018-.04L390.519,12.368a2.824,2.824,0,0,0-.32-.57,2.769,2.769,0,0,0-3.887-.608,2.981,2.981,0,0,0-.789,3.65l10.108,22.825a1.392,1.392,0,1,1-2.54,1.14L380.633,10.673a2.786,2.786,0,0,0-2.639-1.716,2.758,2.758,0,0,0-1.568.538,2.982,2.982,0,0,0-.79,3.65l12.373,27.94a1.4,1.4,0,0,1-.7,1.849,1.384,1.384,0,0,1-1.836-.709l-9.06-20.46a2.835,2.835,0,0,0-.32-.57,2.768,2.768,0,0,0-3.887-.608,2.982,2.982,0,0,0-.79,3.65l14.638,33.054a1.41,1.41,0,0,1-.006,1.15,1.385,1.385,0,0,1-1.843.691l-8.608-4a4.154,4.154,0,0,0-5.43,1.87l-.572,1.115A1.307,1.307,0,0,0,370,59.773L385.581,70.5a19.857,19.857,0,0,0,19.691,2.69,19.436,19.436,0,0,0,3.152-1.793h0c.126-.083.277-.192.439-.312s.314-.239.469-.361q.3-.239.631-.52c.219-.188.437-.378.646-.574C410.7,69.545,410.793,69.455,410.887,69.365Z" transform="translate(-369.452 -6.854)" fill="#ffab20"/>
    <path id="Tracé_975" data-name="Tracé 975" d="M464.726,47.84l-.627-.9a6.084,6.084,0,0,0-8.253-1.659l-4.291,2.744,7.988-27.37a4.954,4.954,0,0,0,.113-2.723,4.885,4.885,0,0,0-5.9-3.618l.824-2.821a5.046,5.046,0,0,0-2.338-5.91,4.871,4.871,0,0,0-6.989,2.959l-.19.649a4.58,4.58,0,0,0-1.233-.967,4.871,4.871,0,0,0-6.989,2.959l-1.568,5.37s-.181.667-.417,1.5l1.52,3.448,2.809-9.624a2.467,2.467,0,0,1,.212-.533,2.436,2.436,0,0,1,3.315-.988,2.617,2.617,0,0,1,1.111,3.086l-4.382,15.014,1.532,3.477,6.624-22.7a2.494,2.494,0,0,1,.212-.534,2.435,2.435,0,0,1,3.314-.987,2.616,2.616,0,0,1,1.112,3.086L444.7,36.584a1.223,1.223,0,1,0,2.345.694l5.511-18.884a2.464,2.464,0,0,1,.212-.533,2.435,2.435,0,0,1,3.314-.988,2.617,2.617,0,0,1,1.111,3.086l-8.9,30.509a1.236,1.236,0,0,0,.139,1,1.217,1.217,0,0,0,1.685.385l7.031-4.5a3.65,3.65,0,0,1,4.946.988l.628.9a1.149,1.149,0,0,1-.168,1.489L450.239,61.915A17.472,17.472,0,0,1,444.3,65.86a25.017,25.017,0,0,1-3.3,3.469A19.91,19.91,0,0,0,451.9,63.715l12.321-11.1A3.609,3.609,0,0,0,464.726,47.84Z" transform="translate(-400.192 -5)" fill="#084958"/>
  </g>
</svg>
